<?xml version="1.0" encoding="UTF-8"?><svg id="Layer_2" xmlns="http://www.w3.org/2000/svg" viewBox="0 0 250 250"><defs><style>.cls-1{fill:#fff;}.cls-2{fill:#231f20;}</style></defs><g id="Grounded-Tutor-Text-Blk-Fav"><rect class="cls-1" width="250" height="250"/><path id="Grounded-Tutor-Text-Blk" class="cls-2" d="m50.27,93.89v4.1h-6.27v-4.52c0-3.01-1.33-4.16-3.44-4.16s-3.44,1.15-3.44,4.16v22.78c0,3.01,1.33,4.1,3.44,4.1s3.44-1.08,3.44-4.1v-7.77h-3.01v-6.03h9.28v13.38c0,6.75-3.37,10.61-9.88,10.61s-9.88-3.86-9.88-10.61v-21.94c0-6.75,3.37-10.61,9.88-10.61s9.88,3.86,9.88,10.61Zm24.89,32.06h-6.75c-.36-1.08-.6-1.75-.6-5.18v-6.63c0-3.92-1.33-5.36-4.34-5.36h-2.29v17.18h-6.63v-42.19h10c6.87,0,9.82,3.19,9.82,9.7v3.31c0,4.34-1.39,7.17-4.34,8.56,3.31,1.39,4.4,4.58,4.4,8.98v6.51c0,2.05.06,3.56.72,5.12Zm-7.41-31.82c0-3.01-1.02-4.34-3.37-4.34h-3.19v12.96h2.59c2.47,0,3.98-1.08,3.98-4.46v-4.16Zm10.49,21.7v-21.94c0-6.75,3.56-10.61,10.06-10.61s10.06,3.86,10.06,10.61v21.94c0,6.75-3.56,10.61-10.06,10.61s-10.06-3.86-10.06-10.61Zm6.63.42c0,3.01,1.33,4.16,3.44,4.16s3.44-1.14,3.44-4.16v-22.78c0-3.01-1.33-4.16-3.44-4.16s-3.44,1.15-3.44,4.16v22.78Zm37.24-.36v-32.12h-6.27v32.54c0,3.01-1.33,4.1-3.44,4.1s-3.44-1.08-3.44-4.1v-32.54h-6.63v32.12c0,6.75,3.37,10.61,9.88,10.61s9.88-3.86,9.88-10.61Zm10.43-20.49l8.26,30.55h6.81v-42.19h-5.91v25.25l-6.81-25.25h-8.32v42.19h5.97v-30.55Zm30.31,30.55h-10.49v-42.19h10.49c6.63,0,9.88,3.68,9.88,10.43v21.33c0,6.75-3.25,10.43-9.88,10.43Zm-.12-6.03c2.11,0,3.37-1.08,3.37-4.1v-21.94c0-3.01-1.27-4.1-3.37-4.1h-3.74v30.13h3.74Zm14.22,6.03h18.08v-6.03h-11.45v-12.36h9.1v-6.03h-9.1v-11.75h11.45v-6.03h-18.08v42.19Zm42.55-31.76v21.33c0,6.75-3.25,10.43-9.88,10.43h-10.49v-42.19h10.49c6.63,0,9.88,3.68,9.88,10.43Zm-6.63-.3c0-3.01-1.27-4.1-3.37-4.1h-3.74v30.13h3.74c2.11,0,3.37-1.08,3.37-4.1v-21.94Zm-143.01,42.81h8.62v39.66h2.77v-39.66h8.56v-2.53h-19.95v2.53Zm38.87,29.47c0,4.52-1.69,8.02-6.33,8.02s-6.33-3.5-6.33-8.02v-32h-2.77v31.88c0,6.03,2.59,10.67,9.04,10.67s8.98-4.64,8.98-10.67v-31.88h-2.59v32Zm6.03-29.47h8.62v39.66h2.77v-39.66h8.56v-2.53h-19.95v2.53Zm41.94,7.77v21.58c0,6.15-2.83,10.67-9.34,10.67s-9.22-4.52-9.22-10.67v-21.58c0-6.15,2.83-10.67,9.22-10.67s9.34,4.52,9.34,10.67Zm-2.77-.18c0-4.58-1.87-7.96-6.57-7.96s-6.45,3.38-6.45,7.96v21.94c0,4.58,1.81,7.95,6.45,7.95s6.57-3.38,6.57-7.95v-21.94Zm25.19,27c0,1.75.12,3.68,1.02,5.06h-2.89c-.72-1.27-.9-2.77-.9-5.06v-6.63c0-5.6-3.07-7.17-7.9-7.17h-4.4v18.86h-2.77v-42.19h8.8c6.45,0,9.04,3.56,9.04,9.52v3.68c0,4.94-1.93,7.77-6.09,8.74,4.34.96,6.09,4.04,6.09,8.62v6.57Zm-10.61-16.33c4.94,0,7.83-1.39,7.83-7.05v-3.98c0-4.52-1.75-7.23-6.33-7.23h-5.97v18.26h4.46Z"/></g></svg>